<svg viewBox="0 0 120 130.72" xmlns="http://www.w3.org/2000/svg"><path d="m0 65.2c0-9.59.05-19.2 0-28.79a4.06 4.06 0 0 1 2.29-4q22.71-12.86 45.37-25.87c3.44-2 6.91-3.9 10.32-5.92a3.61 3.61 0 0 1 4 0q24.66 14.16 49.35 28.24c2.32 1.33 4.63 2.67 7 4a2.94 2.94 0 0 1 1.67 2.62v.91q0 28.9 0 57.82a4.14 4.14 0 0 1 -2.35 4q-25.73 14.61-51.38 29.33c-1.54.88-3.09 1.71-4.6 2.63a3 3 0 0 1 -3.32 0q-11.82-6.8-23.68-13.54c-10.78-6.11-21.56-12.3-32.37-18.41a4 4 0 0 1 -2.3-4c.06-9.66 0-19.34 0-29.02z" fill="#23153c"/><path d="m45 73.22 1-4.57q3.36-16.88 6.73-33.76 1.72-8.89 3.53-17.72a3.56 3.56 0 0 1 7.1.29c.83 7.16 1.64 14.32 2.47 21.48s1.64 14.06 2.45 21.06l3.24 28.23a6.33 6.33 0 0 0 .48 1.95c.24-.87.49-1.75.71-2.62q2.52-10.17 5.05-20.32a3.7 3.7 0 0 1 3.91-3.1q10.49 0 21 0a3.67 3.67 0 0 1 3.79 3.54 3.61 3.61 0 0 1 -3.75 3.54c-5.68 0-11.36 0-17 0-1.72 0-1.48-.29-1.93 1.5q-4.91 19.28-9.73 38.59a3.55 3.55 0 0 1 -7.06-.48q-1.45-12.73-2.91-25.46-1.57-13.44-3.16-26.89-1-8.49-2-17a.51.51 0 0 0 -.25-.39c-.25 1.16-.5 2.33-.74 3.49q-3.61 18.06-7.21 36.1c-.6 3-1.17 6-1.81 9a3.51 3.51 0 0 1 -3.5 3.06 3.61 3.61 0 0 1 -3.53-2.93q-3.74-13.65-7.45-27.31c-.1-.38-.22-.76-.41-1.43-.25.54-.39.81-.5 1.09l-2.44 6.12c-.9 2.26-1.91 3-4.35 3h-16.32c-.29 0-.58 0-.86 0a3.44 3.44 0 0 1 -3.46-3.47 3.47 3.47 0 0 1 3.37-3.58c1.14-.07 2.3 0 3.45 0h11.39a1 1 0 0 0 1.13-.74c1.9-4.8 3.84-9.59 5.75-14.38.8-2 1.92-2.85 3.77-2.75 1.65.08 2.77 1.09 3.31 3.06q3 11 6 22c.17.64.36 1.28.55 1.91z" fill="#fff"/></svg>