<?xml version="1.0" encoding="UTF-8"?>
<svg xmlns="http://www.w3.org/2000/svg" xmlns:xlink="http://www.w3.org/1999/xlink" viewBox="0 0 60 60" width="60px" height="60px">
<g id="surface205363878">
<path style=" stroke:none;fill-rule:nonzero;fill:rgb(22.352941%,70.980394%,88.627452%);fill-opacity:1;" d="M 30 4.800781 C 30.679688 4.800781 31.316406 5.0625 31.796875 5.546875 L 54.453125 28.203125 C 55.449219 29.195312 55.449219 30.804688 54.453125 31.796875 L 31.796875 54.453125 C 31.316406 54.9375 30.679688 55.199219 30 55.199219 C 29.320312 55.199219 28.683594 54.9375 28.203125 54.453125 L 5.546875 31.796875 C 4.550781 30.804688 4.550781 29.195312 5.546875 28.203125 L 20.328125 13.421875 L 23.058594 16.148438 C 22.402344 18.585938 23.0625 21.242188 24.910156 23.089844 C 25.351562 23.53125 25.851562 23.910156 26.398438 24.226562 L 26.398438 35.78125 C 24.214844 37.039062 22.800781 39.390625 22.800781 42 C 22.800781 45.96875 26.03125 49.199219 30 49.199219 C 33.96875 49.199219 37.199219 45.96875 37.199219 42 C 37.199219 39.390625 35.785156 37.039062 33.601562 35.78125 L 33.601562 26.691406 L 35.058594 28.148438 C 34.402344 30.585938 35.0625 33.242188 36.910156 35.089844 C 38.269531 36.449219 40.078125 37.199219 42 37.199219 C 43.921875 37.199219 45.730469 36.449219 47.089844 35.089844 C 49.898438 32.28125 49.898438 27.71875 47.089844 24.910156 C 45.734375 23.554688 43.941406 22.808594 42.023438 22.808594 C 41.390625 22.808594 40.757812 22.894531 40.148438 23.058594 L 36.941406 19.851562 C 37.597656 17.414062 36.9375 14.757812 35.089844 12.910156 C 33.734375 11.554688 31.941406 10.808594 30.023438 10.808594 C 29.390625 10.808594 28.757812 10.894531 28.148438 11.058594 L 25.421875 8.328125 L 28.203125 5.546875 C 28.683594 5.0625 29.320312 4.800781 30 4.800781 M 30 2.398438 C 28.734375 2.398438 27.46875 2.882812 26.507812 3.847656 L 22.027344 8.328125 L 27.570312 13.875 C 28.328125 13.433594 29.175781 13.210938 30.023438 13.210938 C 31.242188 13.210938 32.460938 13.671875 33.394531 14.605469 C 34.972656 16.1875 35.203125 18.585938 34.121094 20.421875 L 39.570312 25.875 C 40.328125 25.433594 41.175781 25.210938 42.023438 25.210938 C 43.242188 25.210938 44.460938 25.671875 45.394531 26.605469 C 47.269531 28.480469 47.269531 31.519531 45.394531 33.394531 C 44.457031 34.332031 43.226562 34.800781 42 34.800781 C 40.773438 34.800781 39.542969 34.332031 38.605469 33.394531 C 37.027344 31.8125 36.796875 29.414062 37.878906 27.570312 L 32.429688 22.121094 C 32.039062 22.351562 31.625 22.519531 31.199219 22.625 L 31.199219 37.367188 C 33.265625 37.902344 34.800781 39.765625 34.800781 42 C 34.800781 44.652344 32.652344 46.800781 30 46.800781 C 27.351562 46.800781 25.199219 44.652344 25.199219 42 C 25.199219 39.765625 26.734375 37.902344 28.800781 37.367188 L 28.800781 22.625 C 28 22.421875 27.234375 22.023438 26.605469 21.394531 C 25.027344 19.8125 24.796875 17.414062 25.878906 15.578125 L 20.328125 10.027344 L 3.847656 26.507812 C 1.917969 28.433594 1.917969 31.566406 3.847656 33.492188 L 26.507812 56.152344 C 27.46875 57.117188 28.734375 57.601562 30 57.601562 C 31.265625 57.601562 32.53125 57.117188 33.492188 56.152344 L 56.152344 33.492188 C 58.082031 31.566406 58.082031 28.433594 56.152344 26.507812 L 33.492188 3.847656 C 32.53125 2.882812 31.265625 2.398438 30 2.398438 Z M 30 2.398438 "/>
</g>
</svg>
