<?xml version="1.0" encoding="UTF-8"?>
<svg xmlns="http://www.w3.org/2000/svg" xmlns:xlink="http://www.w3.org/1999/xlink" viewBox="0 0 60 60" width="60px" height="60px">
<g id="surface205331685">
<path style=" stroke:none;fill-rule:nonzero;fill:rgb(22.352941%,70.980394%,88.627452%);fill-opacity:1;" d="M 21.347656 56.203125 C 22.203125 55.835938 22.800781 54.988281 22.800781 54 L 22.800781 47.519531 C 22.800781 47.285156 22.820312 47.039062 22.847656 46.789062 C 22.832031 46.792969 22.816406 46.796875 22.800781 46.800781 C 22.800781 46.800781 19.199219 46.800781 18.480469 46.800781 C 16.679688 46.800781 15.121094 46.078125 14.398438 44.640625 C 13.558594 43.078125 13.199219 40.441406 11.039062 39 C 10.679688 38.761719 10.921875 38.398438 11.640625 38.398438 C 12.359375 38.519531 13.921875 39.480469 14.878906 40.800781 C 15.960938 42.121094 17.039062 43.199219 18.960938 43.199219 C 21.945312 43.199219 23.542969 43.050781 24.507812 42.535156 C 25.628906 40.867188 27.179688 39.601562 28.800781 39.601562 L 28.800781 39.570312 C 22 39.351562 17.652344 37.089844 15.628906 33.601562 C 11.230469 33.652344 7.402344 34.085938 5.21875 34.449219 C 5.148438 34.054688 5.089844 33.660156 5.035156 33.265625 C 7.191406 32.910156 10.847656 32.488281 15.050781 32.40625 C 14.914062 32.074219 14.800781 31.738281 14.703125 31.386719 C 10.488281 31.175781 6.851562 31.339844 4.875 31.503906 C 4.851562 31.105469 4.820312 30.710938 4.816406 30.304688 C 6.792969 30.144531 10.332031 29.980469 14.4375 30.171875 C 14.34375 29.574219 14.28125 28.960938 14.28125 28.320312 C 14.28125 26.28125 15 24.121094 16.320312 22.320312 C 15.722656 20.28125 14.882812 15.960938 16.5625 14.402344 C 19.800781 14.402344 22.082031 15.960938 23.160156 16.921875 C 25.199219 16.078125 27.480469 15.601562 30 15.601562 C 32.519531 15.601562 34.800781 16.078125 36.71875 16.921875 C 37.800781 15.960938 40.078125 14.398438 43.320312 14.398438 C 45.121094 16.078125 44.160156 20.398438 43.558594 22.320312 C 44.878906 24.121094 45.601562 26.160156 45.480469 28.320312 C 45.480469 28.902344 45.425781 29.460938 45.347656 30.011719 C 49.546875 29.804688 53.179688 29.96875 55.191406 30.132812 C 55.191406 30.539062 55.152344 30.933594 55.132812 31.332031 C 53.125 31.167969 49.402344 30.996094 45.101562 31.226562 C 44.992188 31.628906 44.863281 32.019531 44.710938 32.402344 C 48.964844 32.457031 52.707031 32.867188 54.96875 33.226562 C 54.917969 33.625 54.855469 34.019531 54.789062 34.414062 C 52.492188 34.046875 48.582031 33.617188 44.132812 33.59375 C 42.132812 37.046875 37.867188 39.300781 31.199219 39.5625 L 31.199219 39.601562 C 34.320312 39.601562 37.199219 44.28125 37.199219 47.519531 L 37.199219 54 C 37.199219 54.988281 37.796875 55.835938 38.652344 56.203125 C 49.644531 52.566406 57.601562 42.195312 57.601562 30 C 57.601562 14.78125 45.21875 2.398438 30 2.398438 C 14.78125 2.398438 2.398438 14.78125 2.398438 30 C 2.398438 42.195312 10.355469 52.566406 21.347656 56.203125 Z M 21.347656 56.203125 "/>
</g>
</svg>
