<?xml version="1.0" encoding="UTF-8"?>
<svg xmlns="http://www.w3.org/2000/svg" xmlns:xlink="http://www.w3.org/1999/xlink" viewBox="0 0 60 60" width="60px" height="60px">
<g id="surface204765544">
<path style=" stroke:none;fill-rule:nonzero;fill:rgb(22.352941%,70.980394%,88.627452%);fill-opacity:1;" d="M 9.785156 7.5 L 9.960938 9.550781 L 13.242188 46.640625 L 13.359375 47.929688 L 14.589844 48.28125 L 29.472656 52.441406 L 29.941406 52.558594 L 30.46875 52.441406 L 45.351562 48.339844 L 46.582031 47.988281 L 46.699219 46.699219 L 50.039062 9.550781 L 50.214844 7.558594 L 48.164062 7.558594 L 11.835938 7.5 Z M 13.886719 11.25 L 46.113281 11.308594 L 43.066406 45.058594 L 30 48.691406 L 16.875 45.058594 Z M 18.398438 16.875 L 19.628906 30.878906 L 35.683594 30.878906 L 35.15625 36.914062 L 30 38.320312 L 29.941406 38.320312 L 24.785156 36.914062 L 24.492188 33.046875 L 19.804688 33.046875 L 20.449219 40.488281 L 29.941406 43.125 L 30 43.125 L 39.492188 40.488281 L 40.78125 26.25 L 23.847656 26.25 L 23.4375 21.503906 L 41.191406 21.503906 L 41.601562 16.875 Z M 18.398438 16.875 "/>
</g>
</svg>
