<?xml version="1.0" encoding="UTF-8"?>
<svg xmlns="http://www.w3.org/2000/svg" xmlns:xlink="http://www.w3.org/1999/xlink" viewBox="0 0 60 60" width="60px" height="60px">
<g id="surface204989829">
<path style=" stroke:none;fill-rule:nonzero;fill:rgb(22.352941%,70.980394%,88.627452%);fill-opacity:1;" d="M 8 4.800781 C 6.25 4.800781 4.800781 6.25 4.800781 8 L 4.800781 52 C 4.800781 53.75 6.25 55.199219 8 55.199219 L 52 55.199219 C 53.75 55.199219 55.199219 53.757812 55.199219 52 L 55.199219 8 C 55.199219 6.25 53.757812 4.800781 52 4.800781 Z M 8 7.199219 L 52 7.199219 C 52.445312 7.199219 52.800781 7.554688 52.800781 8 L 52.800781 52 C 52.800781 52.445312 52.445312 52.800781 52 52.800781 L 8 52.800781 C 7.554688 52.800781 7.199219 52.445312 7.199219 52 L 7.199219 8 C 7.199219 7.554688 7.554688 7.199219 8 7.199219 Z M 27.601562 27.601562 L 27.601562 42.6875 C 27.601562 45.003906 26.722656 45.601562 25.199219 45.601562 C 23.605469 45.601562 22.5 44.605469 21.769531 43.316406 L 18 45.601562 C 19.09375 47.910156 21.769531 50.398438 25.480469 50.398438 C 29.585938 50.398438 32.398438 48.214844 32.398438 43.421875 L 32.398438 27.601562 Z M 42.542969 27.601562 C 38.457031 27.601562 35.835938 30.214844 35.835938 33.652344 C 35.835938 37.378906 38.035156 39.140625 41.339844 40.546875 L 42.484375 41.039062 C 44.570312 41.953125 45.601562 42.511719 45.601562 44.082031 C 45.601562 45.390625 44.605469 46.335938 42.707031 46.335938 C 40.449219 46.335938 39.378906 44.804688 38.398438 43.199219 L 34.800781 45.601562 C 36.144531 48.257812 38.558594 50.398438 42.8125 50.398438 C 47.160156 50.398438 50.398438 48.140625 50.398438 44.019531 C 50.398438 40.195312 48.207031 38.492188 44.3125 36.824219 L 43.167969 36.335938 C 41.203125 35.484375 40.351562 34.929688 40.351562 33.558594 C 40.351562 32.445312 41.203125 31.59375 42.542969 31.59375 C 43.859375 31.59375 44.703125 32.152344 45.488281 33.558594 L 49.054688 31.269531 C 47.550781 28.613281 45.453125 27.601562 42.542969 27.601562 Z M 42.542969 27.601562 "/>
</g>
</svg>
