<svg viewBox="0 0 599.44 653" xmlns="http://www.w3.org/2000/svg"><g fill="#fff"><path d="m.13 325.71c0-47.94.14-95.87-.11-143.8 0-9.29 3.12-15.19 11.44-19.9q113.48-64.36 226.6-129.33c17.21-9.84 34.52-19.5 51.57-29.6 6.95-4.08 13.05-4.08 20.07-.08q123.18 70.66 246.54 141c11.59 6.63 23.13 13.34 34.8 19.84 5.33 3 8 7.31 8.19 13.33 0 1.52.07 3 .07 4.55q0 144.42.14 288.84c0 9.55-3.38 15.43-11.72 20.17q-128.5 73-256.7 146.53c-7.65 4.37-15.43 8.52-22.94 13.1-5.68 3.47-10.82 3.39-16.6.06q-59.06-33.94-118.27-67.61c-53.89-30.77-107.7-61.68-161.73-92.21-8.25-4.6-11.54-10.49-11.48-19.85.29-48.34.13-96.69.13-145.04zm572.38.64c0-45.46-.07-90.91.12-136.36 0-4.54-1.57-6.84-5.36-9-22.92-12.86-45.72-26-68.55-39q-97.84-55.83-195.67-111.8c-2.51-1.43-4.33-1.32-6.78.1q-35.27 20.3-70.61 40.38c-63.21 36.11-126.34 72.33-189.74 108.13-7 3.94-9.23 8-9.2 15.91q.48 134.29.13 268.59c0 3.76 1.07 5.9 4.47 7.76 14.1 7.76 28 15.85 42 23.83q111.47 63.71 222.9 127.46c2.64 1.51 4.56 1.4 7.13-.09 17.87-10.35 35.85-20.51 53.77-30.75q105.56-60.32 211.14-120.51c3.19-1.82 4.34-3.76 4.33-7.42q-.18-68.58-.08-137.23z"/><path d="m237.13 352.15c1.33-6.57 2.7-13.14 4-19.72q14.52-72.85 29-145.7 7.65-38.26 15.48-76.49c1.82-8.89 7.85-14 15.9-13.82 7.9.22 13.66 6 14.72 15 3.61 30.9 7.11 61.8 10.69 92.7q5.25 45.51 10.56 91 7 60.93 14 121.86a25.73 25.73 0 0 0 2.07 8.36c1-3.77 2.1-7.53 3.05-11.32q10.92-43.85 21.8-87.71c2.19-8.82 7.8-13.34 16.88-13.36q45.26-.09 90.5 0c9.13 0 16.3 6.84 16.36 15.25s-7 15.23-16.2 15.28c-24.52.11-49 0-73.55.08-7.46 0-6.4-1.28-8.34 6.47q-20.87 83.25-41.64 166.52c-2.07 8.25-8.84 13.44-16.41 12.81s-13.12-6.49-14.07-14.87q-6.3-54.94-12.6-109.89-6.74-58-13.62-116.08c-2.85-24.47-5.61-48.94-8.42-73.41a2.2 2.2 0 0 0 -1.07-1.68c-1.07 5-2.19 10.05-3.2 15.09q-15.58 77.9-31.14 155.81c-2.59 12.94-5 25.91-7.82 38.81-1.84 8.48-7.49 13.16-15.08 13.22-7.31.06-13.06-4.67-15.25-12.67q-16.09-58.94-32.15-117.86c-.45-1.66-1-3.3-1.79-6.17-1.07 2.32-1.65 3.47-2.13 4.66q-5.29 13.23-10.56 26.46c-3.87 9.75-8.25 12.75-18.79 12.76h-70.6c-1.24 0-2.48 0-3.72-.07-8.73-.41-14.8-6.52-14.9-15s5.91-14.85 14.54-15.39c4.94-.31 9.91-.12 14.87-.12 16.39 0 32.78-.06 49.17.05 2.57 0 3.92-.68 4.91-3.18 8.18-20.73 16.54-41.4 24.8-62.1 3.48-8.71 8.31-12.29 16.26-11.87 7.16.38 12 4.72 14.3 13.23q12.94 47.39 25.81 94.79c.76 2.76 1.59 5.51 2.38 8.26z"/></g></svg>