<?xml version="1.0" encoding="UTF-8"?>
<svg xmlns="http://www.w3.org/2000/svg" xmlns:xlink="http://www.w3.org/1999/xlink" viewBox="0 0 60 60" width="60px" height="60px">
<g id="surface204793161">
<path style=" stroke:none;fill-rule:nonzero;fill:rgb(22.352941%,70.980394%,88.627452%);fill-opacity:1;" d="M 30 7.5 C 13.429688 7.5 0 16.613281 0 27.859375 C 0 39.101562 13.429688 48.214844 30 48.214844 C 46.570312 48.214844 60 39.101562 60 27.859375 C 60 16.613281 46.570312 7.5 30 7.5 Z M 33.125 43.75 C 20.355469 43.75 10 37.035156 10 28.75 C 10 20.464844 20.355469 13.75 33.125 13.75 C 45.894531 13.75 56.25 20.464844 56.25 28.75 C 56.25 37.035156 45.894531 43.75 33.125 43.75 Z M 33.125 43.75 "/>
<path style=" stroke:none;fill-rule:nonzero;fill:rgb(22.352941%,70.980394%,88.627452%);fill-opacity:1;" d="M 48.8125 41.835938 C 48.089844 40.65625 47.015625 39.75 45.761719 39.203125 C 50.011719 38.152344 53.167969 34.324219 53.167969 29.75 C 53.167969 24.367188 48.800781 20 43.417969 20 L 25 20 L 25 52.5 L 33.667969 52.5 L 33.667969 39.5 L 36.109375 39.5 C 37.320312 39.5 38.429688 40.15625 39.011719 41.214844 L 45.21875 52.5 L 55.335938 52.5 Z M 33.667969 26.5 L 41.253906 26.5 C 43.046875 26.5 44.503906 27.957031 44.503906 29.75 C 44.503906 31.542969 43.046875 33 41.253906 33 L 33.667969 33 Z M 33.667969 26.5 "/>
</g>
</svg>
