<?xml version="1.0" encoding="UTF-8"?>
<svg xmlns="http://www.w3.org/2000/svg" xmlns:xlink="http://www.w3.org/1999/xlink" viewBox="0 0 60 60" width="60px" height="60px">
<g id="surface205390250">
<path style=" stroke:none;fill-rule:nonzero;fill:rgb(22.352941%,70.980394%,88.627452%);fill-opacity:1;" d="M 41.464844 4.78125 C 40.53125 4.75 39.550781 4.914062 38.570312 5.230469 C 36.605469 5.867188 34.546875 7.109375 32.433594 8.828125 C 31.609375 9.5 30.773438 10.269531 29.933594 11.085938 C 29.113281 10.289062 28.296875 9.539062 27.488281 8.878906 C 25.378906 7.164062 23.324219 5.925781 21.367188 5.289062 C 19.40625 4.65625 17.457031 4.636719 15.855469 5.558594 C 14.253906 6.484375 13.296875 8.179688 12.867188 10.195312 C 12.4375 12.210938 12.484375 14.609375 12.914062 17.292969 C 13.0625 18.226562 13.28125 19.207031 13.523438 20.203125 C 12.609375 20.480469 11.71875 20.773438 10.894531 21.09375 C 8.410156 22.066406 6.351562 23.226562 4.855469 24.609375 C 3.355469 25.992188 2.386719 27.671875 2.386719 29.511719 C 2.386719 31.355469 3.355469 33.03125 4.855469 34.414062 C 6.351562 35.796875 8.410156 36.960938 10.894531 37.929688 C 11.777344 38.273438 12.730469 38.585938 13.714844 38.878906 C 13.363281 40.203125 13.074219 41.484375 12.878906 42.703125 C 12.445312 45.390625 12.402344 47.789062 12.832031 49.808594 C 13.261719 51.828125 14.21875 53.535156 15.828125 54.464844 C 17.4375 55.394531 19.398438 55.371094 21.359375 54.734375 C 23.324219 54.097656 25.378906 52.859375 27.492188 51.140625 C 28.3125 50.472656 29.140625 49.710938 29.972656 48.90625 C 30.804688 49.71875 31.640625 50.480469 32.464844 51.152344 C 34.574219 52.867188 36.628906 54.109375 38.585938 54.742188 C 40.546875 55.378906 42.492188 55.398438 44.09375 54.472656 C 45.695312 53.550781 46.652344 51.851562 47.082031 49.835938 C 47.511719 47.824219 47.464844 45.425781 47.035156 42.738281 C 46.839844 41.519531 46.550781 40.230469 46.195312 38.902344 C 47.210938 38.605469 48.195312 38.285156 49.105469 37.929688 C 51.589844 36.960938 53.648438 35.796875 55.144531 34.414062 C 56.644531 33.03125 57.613281 31.355469 57.613281 29.511719 C 57.613281 27.671875 56.644531 25.992188 55.144531 24.609375 C 53.648438 23.226562 51.589844 22.066406 49.105469 21.09375 C 48.269531 20.765625 47.367188 20.472656 46.4375 20.191406 C 46.683594 19.1875 46.898438 18.203125 47.050781 17.265625 C 47.484375 14.574219 47.527344 12.175781 47.097656 10.15625 C 46.667969 8.136719 45.707031 6.433594 44.097656 5.503906 C 43.292969 5.039062 42.402344 4.8125 41.464844 4.78125 Z M 41.355469 7.222656 C 41.941406 7.238281 42.445312 7.378906 42.871094 7.625 C 43.730469 8.121094 44.363281 9.085938 44.699219 10.667969 C 45.039062 12.253906 45.027344 14.394531 44.628906 16.878906 C 44.492188 17.726562 44.292969 18.628906 44.066406 19.550781 C 41.613281 18.960938 38.925781 18.523438 36.058594 18.265625 C 34.617188 16.269531 33.140625 14.457031 31.648438 12.84375 C 32.4375 12.074219 33.21875 11.355469 33.984375 10.730469 C 35.933594 9.144531 37.78125 8.066406 39.324219 7.566406 C 40.09375 7.316406 40.769531 7.207031 41.355469 7.222656 Z M 18.582031 7.230469 C 19.175781 7.214844 19.851562 7.320312 20.621094 7.574219 C 22.167969 8.074219 24.019531 9.152344 25.972656 10.742188 C 26.71875 11.351562 27.488281 12.054688 28.257812 12.804688 C 26.757812 14.429688 25.265625 16.265625 23.816406 18.277344 C 20.960938 18.539062 18.28125 18.980469 15.839844 19.574219 C 15.613281 18.65625 15.417969 17.757812 15.285156 16.914062 C 14.882812 14.425781 14.875 12.285156 15.214844 10.695312 C 15.550781 9.105469 16.191406 8.136719 17.054688 7.636719 C 17.488281 7.386719 17.992188 7.246094 18.582031 7.230469 Z M 29.972656 14.570312 C 30.949219 15.636719 31.925781 16.800781 32.898438 18.050781 C 31.945312 18.011719 30.980469 17.988281 30 17.988281 C 29 17.988281 28.019531 18.011719 27.046875 18.054688 C 28.015625 16.800781 28.992188 15.636719 29.972656 14.570312 Z M 30 20.410156 C 31.632812 20.410156 33.222656 20.480469 34.769531 20.59375 C 35.835938 22.121094 36.875 23.742188 37.867188 25.460938 C 38.738281 26.96875 39.523438 28.476562 40.242188 29.960938 C 39.515625 31.46875 38.714844 32.996094 37.832031 34.527344 C 37.054688 35.871094 36.242188 37.152344 35.417969 38.382812 C 33.671875 38.53125 31.859375 38.609375 30 38.609375 C 28.09375 38.609375 26.242188 38.523438 24.457031 38.371094 C 23.644531 37.15625 22.847656 35.894531 22.082031 34.570312 C 21.203125 33.042969 20.402344 31.523438 19.679688 30.019531 C 20.40625 28.507812 21.207031 26.972656 22.09375 25.4375 C 23.082031 23.730469 24.117188 22.117188 25.175781 20.597656 C 26.742188 20.480469 28.347656 20.410156 30 20.410156 Z M 37.859375 20.890625 C 39.839844 21.140625 41.695312 21.480469 43.421875 21.894531 C 42.910156 23.574219 42.277344 25.332031 41.511719 27.144531 C 41.015625 26.183594 40.5 25.222656 39.945312 24.261719 C 39.269531 23.09375 38.570312 21.980469 37.859375 20.890625 Z M 22.011719 20.910156 C 21.316406 21.976562 20.632812 23.070312 19.972656 24.214844 C 19.410156 25.1875 18.882812 26.164062 18.382812 27.132812 C 17.625 25.332031 16.996094 23.585938 16.484375 21.914062 C 18.203125 21.503906 20.046875 21.160156 22.011719 20.910156 Z M 45.796875 22.53125 C 46.648438 22.789062 47.46875 23.054688 48.222656 23.351562 C 50.515625 24.246094 52.328125 25.304688 53.503906 26.390625 C 54.679688 27.476562 55.1875 28.507812 55.1875 29.511719 C 55.1875 30.515625 54.679688 31.550781 53.503906 32.632812 C 52.328125 33.71875 50.515625 34.777344 48.222656 35.675781 C 47.386719 36 46.464844 36.296875 45.507812 36.578125 C 44.828125 34.46875 43.957031 32.265625 42.917969 30.019531 C 44.109375 27.4375 45.074219 24.921875 45.796875 22.53125 Z M 14.164062 22.542969 C 14.878906 24.910156 15.828125 27.402344 17.003906 29.957031 C 15.960938 32.214844 15.085938 34.429688 14.398438 36.554688 C 13.476562 36.28125 12.589844 35.992188 11.777344 35.675781 C 9.484375 34.777344 7.671875 33.71875 6.496094 32.632812 C 5.320312 31.550781 4.8125 30.515625 4.8125 29.511719 C 4.8125 28.507812 5.320312 27.476562 6.496094 26.390625 C 7.671875 25.304688 9.484375 24.246094 11.777344 23.351562 C 12.519531 23.0625 13.328125 22.796875 14.164062 22.542969 Z M 30 24 C 26.699219 24 24 26.699219 24 30 C 24 33.300781 26.699219 36 30 36 C 33.300781 36 36 33.300781 36 30 C 36 26.699219 33.300781 24 30 24 Z M 30 26.398438 C 32.003906 26.398438 33.601562 27.996094 33.601562 30 C 33.601562 32.003906 32.003906 33.601562 30 33.601562 C 27.996094 33.601562 26.398438 32.003906 26.398438 30 C 26.398438 27.996094 27.996094 26.398438 30 26.398438 Z M 41.542969 32.835938 C 42.171875 34.324219 42.71875 35.78125 43.179688 37.1875 C 41.734375 37.523438 40.199219 37.804688 38.582031 38.027344 C 39.046875 37.285156 39.507812 36.527344 39.957031 35.75 C 40.519531 34.777344 41.042969 33.804688 41.542969 32.835938 Z M 18.410156 32.839844 C 18.914062 33.8125 19.441406 34.789062 20.007812 35.769531 C 20.449219 36.539062 20.902344 37.285156 21.359375 38.019531 C 19.75 37.796875 18.21875 37.515625 16.777344 37.179688 C 17.238281 35.777344 17.785156 34.324219 18.410156 32.839844 Z M 16.085938 39.507812 C 18.257812 40.023438 20.613281 40.417969 23.109375 40.675781 C 24.777344 43.085938 26.511719 45.25 28.257812 47.144531 C 27.476562 47.90625 26.703125 48.621094 25.945312 49.238281 C 23.996094 50.824219 22.144531 51.902344 20.605469 52.402344 C 19.0625 52.902344 17.914062 52.835938 17.054688 52.339844 C 16.199219 51.847656 15.566406 50.882812 15.230469 49.296875 C 14.890625 47.714844 14.902344 45.574219 15.300781 43.09375 C 15.480469 41.964844 15.75 40.757812 16.085938 39.507812 Z M 43.871094 39.519531 C 44.210938 40.777344 44.484375 41.988281 44.664062 43.121094 C 45.0625 45.605469 45.074219 47.746094 44.734375 49.335938 C 44.394531 50.925781 43.761719 51.894531 42.894531 52.394531 C 42.03125 52.894531 40.871094 52.960938 39.324219 52.460938 C 37.78125 51.960938 35.929688 50.878906 33.976562 49.289062 C 33.214844 48.667969 32.433594 47.949219 31.648438 47.183594 C 33.40625 45.28125 35.15625 43.105469 36.832031 40.679688 C 39.335938 40.425781 41.695312 40.03125 43.871094 39.519531 Z M 26.242188 40.921875 C 27.472656 40.988281 28.722656 41.035156 30 41.035156 C 31.238281 41.035156 32.445312 40.992188 33.636719 40.929688 C 32.417969 42.574219 31.175781 44.070312 29.9375 45.417969 C 28.699219 44.066406 27.457031 42.570312 26.242188 40.921875 Z M 26.242188 40.921875 "/>
</g>
</svg>
