<?xml version="1.0" encoding="UTF-8"?>
<svg xmlns="http://www.w3.org/2000/svg" xmlns:xlink="http://www.w3.org/1999/xlink" viewBox="0 0 60 60" width="60px" height="60px">
<g id="surface204768798">
<path style=" stroke:none;fill-rule:nonzero;fill:rgb(22.352941%,70.980394%,88.627452%);fill-opacity:1;" d="M 51.636719 33.363281 C 49.539062 33.375 47.722656 33.878906 46.199219 34.628906 C 45.644531 33.515625 45.078125 32.539062 44.984375 31.8125 C 44.875 30.960938 44.746094 30.457031 44.878906 29.445312 C 45.011719 28.433594 45.597656 27 45.589844 26.894531 C 45.578125 26.789062 45.457031 26.273438 44.246094 26.261719 C 43.039062 26.253906 42.003906 26.496094 41.882812 26.816406 C 41.757812 27.132812 41.527344 27.851562 41.382812 28.601562 C 41.167969 29.699219 38.96875 33.613281 37.714844 35.65625 C 37.308594 34.859375 36.957031 34.15625 36.886719 33.597656 C 36.777344 32.75 36.648438 32.242188 36.78125 31.230469 C 36.914062 30.222656 37.5 28.789062 37.492188 28.683594 C 37.480469 28.574219 37.359375 28.0625 36.148438 28.050781 C 34.941406 28.042969 33.90625 28.285156 33.785156 28.601562 C 33.660156 28.921875 33.53125 29.667969 33.285156 30.390625 C 33.035156 31.113281 30.109375 37.636719 29.339844 39.328125 C 28.949219 40.191406 28.609375 40.882812 28.371094 41.355469 C 28.371094 41.355469 28.371094 41.351562 28.371094 41.351562 C 28.371094 41.351562 28.355469 41.382812 28.328125 41.4375 C 28.125 41.839844 28 42.0625 28 42.0625 C 28 42.0625 28.003906 42.066406 28.003906 42.070312 C 27.839844 42.367188 27.667969 42.640625 27.582031 42.640625 C 27.519531 42.640625 27.398438 41.855469 27.605469 40.777344 C 28.042969 38.511719 29.089844 34.980469 29.078125 34.859375 C 29.074219 34.796875 29.273438 34.183594 28.394531 33.863281 C 27.542969 33.550781 27.238281 34.070312 27.160156 34.070312 C 27.085938 34.074219 27.027344 34.253906 27.027344 34.253906 C 27.027344 34.253906 27.980469 30.285156 25.214844 30.285156 C 23.484375 30.285156 21.089844 32.175781 19.910156 33.890625 C 19.164062 34.296875 17.570312 35.164062 15.878906 36.09375 C 15.230469 36.453125 14.570312 36.816406 13.941406 37.164062 C 13.898438 37.117188 13.855469 37.066406 13.8125 37.019531 C 10.457031 33.445312 4.261719 30.914062 4.523438 26.105469 C 4.621094 24.359375 5.226562 19.753906 16.433594 14.171875 C 25.613281 9.597656 32.960938 10.855469 34.230469 13.644531 C 36.042969 17.628906 30.300781 25.039062 20.769531 26.105469 C 17.136719 26.511719 15.226562 25.105469 14.75 24.582031 C 14.25 24.027344 14.175781 24.003906 13.988281 24.109375 C 13.683594 24.277344 13.875 24.765625 13.988281 25.054688 C 14.273438 25.796875 15.441406 27.109375 17.433594 27.761719 C 19.183594 28.335938 23.449219 28.652344 28.605469 26.65625 C 34.382812 24.421875 38.890625 18.207031 37.566406 13.015625 C 36.21875 7.730469 27.460938 5.992188 19.167969 8.9375 C 14.234375 10.691406 8.894531 13.445312 5.050781 17.035156 C 0.484375 21.308594 -0.242188 25.023438 0.0585938 26.578125 C 1.125 32.097656 8.730469 35.691406 11.777344 38.355469 C 11.628906 38.4375 11.488281 38.515625 11.359375 38.585938 C 9.832031 39.34375 4.03125 42.378906 2.582031 45.585938 C 0.9375 49.222656 2.84375 51.832031 4.105469 52.183594 C 8.019531 53.273438 12.035156 51.3125 14.191406 48.09375 C 16.347656 44.878906 16.085938 40.6875 15.09375 38.777344 C 15.082031 38.75 15.070312 38.730469 15.054688 38.703125 C 15.453125 38.472656 15.851562 38.234375 16.25 38 C 17.027344 37.542969 17.792969 37.117188 18.453125 36.757812 C 18.085938 37.773438 17.8125 38.988281 17.671875 40.746094 C 17.503906 42.8125 18.351562 45.480469 19.460938 46.53125 C 19.945312 46.992188 20.53125 47.003906 20.90625 47.003906 C 22.195312 47.003906 22.78125 45.933594 23.429688 44.664062 C 24.222656 43.109375 24.925781 41.300781 24.925781 41.300781 C 24.925781 41.300781 24.042969 46.1875 26.453125 46.1875 C 27.328125 46.1875 28.214844 45.050781 28.605469 44.472656 C 28.609375 44.476562 28.609375 44.480469 28.609375 44.480469 C 28.609375 44.480469 28.628906 44.441406 28.675781 44.367188 C 28.765625 44.226562 28.816406 44.136719 28.816406 44.136719 C 28.816406 44.136719 28.820312 44.128906 28.824219 44.113281 C 29.175781 43.5 29.957031 42.105469 31.132812 39.800781 C 32.648438 36.824219 34.101562 33.097656 34.101562 33.097656 C 34.101562 33.097656 34.238281 34.007812 34.679688 35.515625 C 34.941406 36.402344 35.496094 37.382812 35.929688 38.320312 C 35.578125 38.808594 35.363281 39.089844 35.363281 39.089844 C 35.363281 39.089844 35.367188 39.09375 35.371094 39.105469 C 35.089844 39.476562 34.773438 39.878906 34.445312 40.273438 C 33.246094 41.699219 31.820312 43.324219 31.628906 43.796875 C 31.40625 44.347656 31.460938 44.757812 31.894531 45.085938 C 32.210938 45.324219 32.777344 45.359375 33.367188 45.320312 C 34.441406 45.25 35.199219 44.980469 35.570312 44.820312 C 36.152344 44.613281 36.832031 44.289062 37.46875 43.820312 C 38.640625 42.957031 39.347656 41.722656 39.28125 40.089844 C 39.246094 39.1875 38.957031 38.292969 38.59375 37.449219 C 38.699219 37.296875 38.808594 37.144531 38.914062 36.988281 C 40.765625 34.28125 42.199219 31.308594 42.199219 31.308594 C 42.199219 31.308594 42.335938 32.21875 42.777344 33.726562 C 43.003906 34.488281 43.445312 35.320312 43.84375 36.136719 C 42.101562 37.550781 41.023438 39.191406 40.648438 40.269531 C 39.957031 42.265625 40.496094 43.167969 41.515625 43.371094 C 41.976562 43.464844 42.628906 43.253906 43.117188 43.046875 C 43.726562 42.847656 44.457031 42.507812 45.144531 42.007812 C 46.316406 41.144531 47.445312 39.933594 47.378906 38.300781 C 47.347656 37.554688 47.144531 36.816406 46.871094 36.105469 C 48.34375 35.492188 50.257812 35.148438 52.6875 35.433594 C 57.90625 36.042969 58.929688 39.300781 58.734375 40.664062 C 58.539062 42.027344 57.445312 42.777344 57.078125 43.003906 C 56.714844 43.230469 56.601562 43.308594 56.632812 43.476562 C 56.675781 43.722656 56.847656 43.710938 57.160156 43.660156 C 57.589844 43.585938 59.898438 42.550781 59.996094 40.03125 C 60.121094 36.84375 57.058594 33.332031 51.636719 33.363281 Z M 11.414062 46.921875 C 9.6875 48.808594 7.269531 49.519531 6.234375 48.921875 C 5.117188 48.273438 5.558594 45.496094 7.679688 43.496094 C 8.972656 42.277344 10.644531 41.152344 11.75 40.460938 C 12.003906 40.308594 12.371094 40.085938 12.820312 39.816406 C 12.894531 39.773438 12.9375 39.75 12.9375 39.75 L 12.9375 39.746094 C 13.023438 39.695312 13.113281 39.640625 13.203125 39.585938 C 13.976562 42.4375 13.230469 44.945312 11.414062 46.921875 Z M 24.007812 38.363281 C 23.402344 39.828125 22.144531 43.585938 21.375 43.382812 C 20.71875 43.210938 20.316406 40.355469 21.246094 37.546875 C 21.710938 36.132812 22.707031 34.445312 23.296875 33.789062 C 24.238281 32.730469 25.277344 32.386719 25.53125 32.816406 C 25.851562 33.359375 24.382812 37.441406 24.007812 38.363281 Z M 34.410156 43.324219 C 34.15625 43.460938 33.921875 43.542969 33.8125 43.476562 C 33.730469 43.429688 33.917969 43.253906 33.917969 43.253906 C 33.917969 43.253906 35.21875 41.855469 35.730469 41.21875 C 36.03125 40.847656 36.375 40.40625 36.753906 39.914062 C 36.757812 39.964844 36.757812 40.011719 36.757812 40.0625 C 36.753906 41.738281 35.132812 42.871094 34.410156 43.324219 Z M 42.425781 41.5 C 42.234375 41.363281 42.265625 40.925781 42.890625 39.5625 C 43.136719 39.027344 43.699219 38.125 44.671875 37.261719 C 44.785156 37.617188 44.855469 37.957031 44.855469 38.273438 C 44.839844 40.382812 43.335938 41.171875 42.425781 41.5 Z M 42.425781 41.5 "/>
</g>
</svg>
