<?xml version="1.0" encoding="UTF-8"?>
<svg xmlns="http://www.w3.org/2000/svg" xmlns:xlink="http://www.w3.org/1999/xlink" viewBox="0 0 60 60" width="60px" height="60px">
<g id="surface204984744">
<path style=" stroke:none;fill-rule:nonzero;fill:rgb(22.352941%,70.980394%,88.627452%);fill-opacity:1;" d="M 30 12.003906 C 22 12.003906 17 16.003906 15 24 C 18 20.003906 21.5 18.503906 25.5 19.503906 C 27.78125 20.074219 29.414062 21.730469 31.21875 23.5625 C 34.160156 26.546875 37.5625 30 45 30 C 53 30 58 26 60 18.003906 C 57 22 53.5 23.5 49.5 22.503906 C 47.21875 21.933594 45.585938 20.277344 43.78125 18.445312 C 40.839844 15.457031 37.433594 12.003906 30 12.003906 Z M 15 30 C 7 30 2 34 0 41.996094 C 3 38 6.5 36.5 10.5 37.5 C 12.78125 38.070312 14.414062 39.726562 16.21875 41.554688 C 19.160156 44.542969 22.566406 47.996094 30 47.996094 C 38 47.996094 43 43.996094 45 36 C 42 39.996094 38.5 41.496094 34.5 40.496094 C 32.21875 39.925781 30.585938 38.269531 28.78125 36.441406 C 25.839844 33.453125 22.4375 30 15 30 Z M 15 30 "/>
</g>
</svg>
