<svg height="200" viewBox="0 0 200 200" width="200" xmlns="http://www.w3.org/2000/svg"><path d="m0 0h200v200h-200z" fill="#5085f7"/><path d="m80.84 105.65c-.33-.43-.06-.87 0-1.29a15.09 15.09 0 0 0 -2.13-11.48c-.21-.31-.27-.53 0-.77.31.09.48.37.69.59 3.83 3.76 7.6 7.51 11.33 11.3.45.46.68.5 1.15 0 6.71-7 13.6-13.79 20.4-20.69.52-.53.8-.57 1.33 0 1.39 1.47 2.83 2.88 4.28 4.28.36.34.31.57 0 .86-2 1.91-3.87 3.87-5.77 5.85-3.08 3.22-6.27 6.32-9.41 9.48-.19.2-.37.41-.56.62-1.9 1.88-3.82 3.73-5.62 5.73s-3.54 3.57-5.31 5.36c-.34.34-.48 0-.65-.14-1.51-1.5-3-3-4.51-4.51z" fill="#005694"/><path d="m177.49 113.59a5.38 5.38 0 1 1 -5.39-5.4 5.45 5.45 0 0 1 5.39 5.4z" fill="#f1c638"/><path d="m55.57 113.67-.13-.7c.27 0 .36.17.48.33z" fill="#f6e096"/><g fill="#f1c638"><path d="m164.09 101.86a17.37 17.37 0 0 0 -4.48-10 13.38 13.38 0 0 0 -10-4.87 17.6 17.6 0 0 0 -12.61 5.01 19.26 19.26 0 0 0 -2.33 2.7 2.16 2.16 0 0 1 0-1c.48-3.8.95-7.61 1.46-11.4.09-.67-.15-.8-.73-.86-2-.22-3.94-.45-5.91-.73-2.26-.33-2.22-.35-2.48 1.87-.5 4.1-1 8.19-1.57 12.3-.29-.09-.28-.36-.36-.55a8.78 8.78 0 0 0 -2.21-3.33 11.13 11.13 0 0 0 -5-2.5c-.47 0-.67.35-.94.61-3.35 3.26-6.47 6.75-9.83 10-1.51 1.47-3 3-4.45 4.46-.24.24-.62.43-.52.88s.07.95.11 1.42c.43 5 2.35 9.11 7.09 11.27 4 1.84 8.09 1.86 11.78-1.06a15.85 15.85 0 0 0 1.89-2.18c-.2 1.62-.36 3.09-.58 4.55-.07.45 0 .58.46.63 2.61.32 5.22.65 7.83 1 .5.07.63-.12.68-.56.16-1.42.34-2.84.52-4.25.35-2.73.7-5.46 1.05-8.21.27.13.28.34.34.51a18.78 18.78 0 0 0 3.32 5.71c3.49 4.11 7.92 5.91 13.24 5a17.52 17.52 0 0 0 11.72-7.17 13.45 13.45 0 0 0 2.51-9.25zm-39.74 1.48c-.13 2.42-.72 4.67-2.78 6.21a6.28 6.28 0 0 1 -6.82.5 5.71 5.71 0 0 1 -3.32-5.25 8.24 8.24 0 0 1 2.16-6.66c1.85-1.83 4.11-2 6.48-1.3a5.81 5.81 0 0 1 4.11 4.66 5.7 5.7 0 0 1 .17 1.84zm26.57 6.28a6 6 0 0 1 -6.46-1.56 10.6 10.6 0 0 1 -2.83-5.61 6 6 0 0 1 3-6.23 5.89 5.89 0 0 1 6.75.58 10.05 10.05 0 0 1 3.59 6.66 6.16 6.16 0 0 1 -4.05 6.16z"/><path d="m79.06 93a1.32 1.32 0 0 1 -.29-.86 13.1 13.1 0 0 0 -3.61-3.35 17.16 17.16 0 0 0 -8.41-2.57 15 15 0 0 0 -8.5 1.8c-6.12 3.48-8.12 9.91-7.51 16.15.07.69.51 1.54.24 2s-1.19.74-1.85 1c-2.38 1.12-3.48.74-4.68-1.6a1.09 1.09 0 0 1 -.08-.15c-1.66-3.4-3.29-6.8-5-10.19-.28-.57-.11-.74.39-1 1.57-.74 3.11-1.54 4.68-2.28.41-.19.55-.34.32-.8-1.07-2.15-2.13-4.31-3.15-6.49-.26-.56-.52-.52-1-.29-1.52.77-3.08 1.48-4.59 2.26-.53.27-.76.19-1-.34-.94-2-1.94-4-2.88-6-.24-.51-.46-.57-.95-.32q-3.84 1.9-7.71 3.73c-.55.26-.68.49-.38 1.07 1 2 1.93 4 2.92 6 .23.45.22.66-.28.88-1 .42-1.91.93-2.88 1.39-.35.16-.53.3-.31.74q1.65 3.32 3.23 6.65c.2.42.4.44.77.24.9-.46 1.83-.85 2.71-1.33.55-.3.82-.28 1.11.35 1.16 2.49 2.37 5 3.58 7.41a51 51 0 0 0 2.68 5.13c2.89 4.51 6.77 6 11.92 4.51a45.62 45.62 0 0 0 7-3.09c.15-.09 0-.51.35-.37s.68.49 1 .71a17.18 17.18 0 0 0 8.24 2.58 15 15 0 0 0 9-2 14.5 14.5 0 0 0 6.7-9 6 6 0 0 0 .27-1.39c.63-3.92.26-7.74-2.05-11.18zm-7.78 11.85a5.08 5.08 0 0 1 -4.7 3.59 5.73 5.73 0 0 1 -5.51-2.73 7.33 7.33 0 0 1 -1-4.21 8.58 8.58 0 0 1 1.71-5.23 5.4 5.4 0 0 1 6.1-1.62 5.57 5.57 0 0 1 4 4.67 10.45 10.45 0 0 1 -.6 5.5z"/></g></svg>