<?xml version="1.0" encoding="UTF-8"?>
<svg xmlns="http://www.w3.org/2000/svg" xmlns:xlink="http://www.w3.org/1999/xlink" viewBox="0 0 60 60" width="60px" height="60px">
<g id="surface204758961">
<path style=" stroke:none;fill-rule:nonzero;fill:rgb(22.352941%,70.980394%,88.627452%);fill-opacity:1;" d="M 55 13.886719 L 55 46.113281 C 55 47.699219 54.011719 49.113281 52.523438 49.636719 L 41.5 54.8125 L 42.5 41.25 L 42.5 18.75 L 41.5 5.1875 L 52.523438 10.363281 C 54.011719 10.886719 55 12.300781 55 13.886719 Z M 55 13.886719 "/>
<path style=" stroke:none;fill-rule:nonzero;fill:rgb(22.352941%,70.980394%,88.627452%);fill-opacity:1;" d="M 11.25 42.371094 L 42.5 18.75 L 42.5 6.691406 C 42.5 5.195312 40.648438 4.492188 39.65625 5.617188 L 5.824219 36.546875 C 4.699219 37.585938 4.761719 39.382812 5.957031 40.339844 C 5.957031 40.339844 7.609375 41.878906 8.210938 42.304688 C 9.128906 42.960938 10.339844 43.039062 11.25 42.371094 Z M 11.25 42.371094 "/>
<path style=" stroke:none;fill-rule:nonzero;fill:rgb(22.352941%,70.980394%,88.627452%);fill-opacity:1;" d="M 11.25 17.628906 L 42.5 41.25 L 42.5 53.308594 C 42.5 54.804688 40.648438 55.507812 39.65625 54.382812 L 5.824219 23.453125 C 4.699219 22.414062 4.761719 20.617188 5.957031 19.660156 C 5.957031 19.660156 7.609375 18.121094 8.210938 17.695312 C 9.128906 17.039062 10.339844 16.960938 11.25 17.628906 Z M 11.25 17.628906 "/>
</g>
</svg>
